{
	"patcher" : 	{
		"fileversion" : 1,
		"rect" : [ 45.0, 70.0, 640.0, 506.0 ],
		"bglocked" : 0,
		"defrect" : [ 45.0, 70.0, 640.0, 506.0 ],
		"openrect" : [ 0.0, 0.0, 0.0, 0.0 ],
		"openinpresentation" : 0,
		"default_fontsize" : 10.0,
		"default_fontface" : 0,
		"default_fontname" : "Verdana",
		"gridonopen" : 0,
		"gridsize" : [ 5.0, 5.0 ],
		"gridsnaponopen" : 0,
		"toolbarvisible" : 1,
		"boxanimatetime" : 200,
		"imprint" : 0,
		"metadata" : [  ],
		"boxes" : [ 			{
				"box" : 				{
					"maxclass" : "bpatcher",
					"patching_rect" : [ 216.0, 250.0, 228.0, 131.0 ],
					"id" : "obj-10",
					"name" : "bpbp.maxpat",
					"args" : [  ],
					"embed" : 1,
					"border" : 1,
					"numinlets" : 0,
					"numoutlets" : 0,
					"patcher" : 					{
						"fileversion" : 1,
						"rect" : [ 216.0, 250.0, 228.0, 131.0 ],
						"bgcolor" : [ 1.0, 1.0, 1.0, 0.0 ],
						"bglocked" : 0,
						"defrect" : [ 216.0, 250.0, 228.0, 131.0 ],
						"openrect" : [ 0.0, 0.0, 0.0, 0.0 ],
						"openinpresentation" : 0,
						"default_fontsize" : 12.0,
						"default_fontface" : 0,
						"default_fontname" : "Arial",
						"gridonopen" : 0,
						"gridsize" : [ 15.0, 15.0 ],
						"gridsnaponopen" : 0,
						"toolbarvisible" : 1,
						"boxanimatetime" : 200,
						"imprint" : 0,
						"metadata" : [  ],
						"boxes" : [ 							{
								"box" : 								{
									"maxclass" : "comment",
									"text" : "clicking here will print bpatcher in the Max window",
									"linecount" : 2,
									"patching_rect" : [ 47.0, 35.0, 159.0, 31.0 ],
									"id" : "obj-8",
									"fontname" : "Verdana",
									"fontsize" : 10.0,
									"numinlets" : 1,
									"numoutlets" : 0
								}

							}
, 							{
								"box" : 								{
									"maxclass" : "button",
									"patching_rect" : [ 20.0, 41.0, 20.0, 20.0 ],
									"outlettype" : [ "bang" ],
									"id" : "obj-3",
									"numinlets" : 1,
									"numoutlets" : 1
								}

							}
, 							{
								"box" : 								{
									"maxclass" : "newobj",
									"text" : "whosyourdaddy",
									"patching_rect" : [ 20.0, 86.0, 89.0, 19.0 ],
									"id" : "obj-1",
									"fontname" : "Verdana",
									"fontsize" : 10.0,
									"numinlets" : 1,
									"numoutlets" : 0
								}

							}
 ],
						"lines" : [ 							{
								"patchline" : 								{
									"source" : [ "obj-3", 0 ],
									"destination" : [ "obj-1", 0 ],
									"hidden" : 0,
									"midpoints" : [  ]
								}

							}
 ]
					}

				}

			}
, 			{
				"box" : 				{
					"maxclass" : "comment",
					"text" : "double-click to open",
					"patching_rect" : [ 384.0, 146.0, 159.0, 19.0 ],
					"id" : "obj-9",
					"fontname" : "Verdana",
					"fontsize" : 10.0,
					"numinlets" : 1,
					"presentation_rect" : [ 300.0, 217.0, 0.0, 0.0 ],
					"numoutlets" : 0
				}

			}
, 			{
				"box" : 				{
					"maxclass" : "comment",
					"text" : "clicking here should do nothing, because the object  is not inside a patcher that has a box",
					"linecount" : 4,
					"patching_rect" : [ 177.0, 133.0, 159.0, 55.0 ],
					"id" : "obj-8",
					"fontname" : "Verdana",
					"fontsize" : 10.0,
					"numinlets" : 1,
					"numoutlets" : 0
				}

			}
, 			{
				"box" : 				{
					"maxclass" : "newobj",
					"text" : "p my_subpatch",
					"patching_rect" : [ 404.0, 175.0, 88.0, 19.0 ],
					"id" : "obj-2",
					"fontname" : "Verdana",
					"fontsize" : 10.0,
					"numinlets" : 0,
					"numoutlets" : 0,
					"patcher" : 					{
						"fileversion" : 1,
						"rect" : [ 350.0, 130.0, 640.0, 480.0 ],
						"bglocked" : 0,
						"defrect" : [ 350.0, 130.0, 640.0, 480.0 ],
						"openrect" : [ 0.0, 0.0, 0.0, 0.0 ],
						"openinpresentation" : 0,
						"default_fontsize" : 10.0,
						"default_fontface" : 0,
						"default_fontname" : "Verdana",
						"gridonopen" : 0,
						"gridsize" : [ 5.0, 5.0 ],
						"gridsnaponopen" : 0,
						"toolbarvisible" : 1,
						"boxanimatetime" : 200,
						"imprint" : 0,
						"metadata" : [  ],
						"boxes" : [ 							{
								"box" : 								{
									"maxclass" : "comment",
									"text" : "clicking will print subpatcher in the max window",
									"linecount" : 2,
									"patching_rect" : [ 211.0, 148.0, 158.0, 31.0 ],
									"id" : "obj-6",
									"fontname" : "Verdana",
									"fontsize" : 10.0,
									"numinlets" : 1,
									"numoutlets" : 0
								}

							}
, 							{
								"box" : 								{
									"maxclass" : "button",
									"patching_rect" : [ 172.0, 151.0, 20.0, 20.0 ],
									"outlettype" : [ "bang" ],
									"id" : "obj-4",
									"numinlets" : 1,
									"numoutlets" : 1
								}

							}
, 							{
								"box" : 								{
									"maxclass" : "newobj",
									"text" : "whosyourdaddy",
									"patching_rect" : [ 165.0, 210.0, 89.0, 19.0 ],
									"id" : "obj-1",
									"fontname" : "Verdana",
									"fontsize" : 10.0,
									"numinlets" : 1,
									"numoutlets" : 0
								}

							}
 ],
						"lines" : [ 							{
								"patchline" : 								{
									"source" : [ "obj-4", 0 ],
									"destination" : [ "obj-1", 0 ],
									"hidden" : 0,
									"midpoints" : [  ]
								}

							}
 ]
					}
,
					"saved_object_attributes" : 					{
						"fontname" : "Verdana",
						"default_fontsize" : 10.0,
						"globalpatchername" : "",
						"fontface" : 0,
						"fontsize" : 10.0,
						"default_fontface" : 0,
						"default_fontname" : "Verdana"
					}

				}

			}
, 			{
				"box" : 				{
					"maxclass" : "button",
					"patching_rect" : [ 150.0, 150.0, 20.0, 20.0 ],
					"outlettype" : [ "bang" ],
					"id" : "obj-3",
					"numinlets" : 1,
					"numoutlets" : 1
				}

			}
, 			{
				"box" : 				{
					"maxclass" : "newobj",
					"text" : "whosyourdaddy",
					"patching_rect" : [ 150.0, 195.0, 89.0, 19.0 ],
					"id" : "obj-1",
					"fontname" : "Verdana",
					"fontsize" : 10.0,
					"numinlets" : 1,
					"numoutlets" : 0
				}

			}
 ],
		"lines" : [ 			{
				"patchline" : 				{
					"source" : [ "obj-3", 0 ],
					"destination" : [ "obj-1", 0 ],
					"hidden" : 0,
					"midpoints" : [  ]
				}

			}
 ]
	}

}
